<svg xmlns="http://www.w3.org/2000/svg" viewBox="0 0 600 520" font-family="-apple-system, 'Segoe UI', sans-serif">
  <defs>
    <linearGradient id="bg" x1="0" y1="0" x2="0" y2="1">
      <stop offset="0%" stop-color="#0f172a"/>
      <stop offset="100%" stop-color="#1e293b"/>
    </linearGradient>
    <marker id="ab" viewBox="0 0 10 10" refX="9" refY="5" markerWidth="7" markerHeight="7" orient="auto-start-reverse"><path d="M0 0L10 5L0 10z" fill="#38bdf8"/></marker>
    <marker id="ag" viewBox="0 0 10 10" refX="9" refY="5" markerWidth="7" markerHeight="7" orient="auto-start-reverse"><path d="M0 0L10 5L0 10z" fill="#22c55e"/></marker>
    <marker id="ar" viewBox="0 0 10 10" refX="9" refY="5" markerWidth="7" markerHeight="7" orient="auto-start-reverse"><path d="M0 0L10 5L0 10z" fill="#e94560"/></marker>
    <marker id="an" viewBox="0 0 10 10" refX="9" refY="5" markerWidth="7" markerHeight="7" orient="auto-start-reverse"><path d="M0 0L10 5L0 10z" fill="#475569"/></marker>
  </defs>
  <rect width="600" height="520" fill="url(#bg)" rx="14"/>

  <!-- CLIENTS -->
  <text x="300" y="25" text-anchor="middle" fill="#64748b" font-size="13" font-weight="600">AI 客户端</text>
  <rect x="15" y="35" width="130" height="42" rx="8" fill="#1e293b" stroke="#38bdf8" stroke-width="1.5"/>
  <text x="80" y="55" text-anchor="middle" fill="#e2e8f0" font-size="14" font-weight="600">Codex CLI</text>
  <text x="80" y="70" text-anchor="middle" fill="#64748b" font-size="11">AI Coding Agent</text>
  <rect x="158" y="35" width="130" height="42" rx="8" fill="#1e293b" stroke="#38bdf8" stroke-width="1.5"/>
  <text x="223" y="55" text-anchor="middle" fill="#e2e8f0" font-size="14" font-weight="600">WorkBuddy</text>
  <text x="223" y="70" text-anchor="middle" fill="#64748b" font-size="11">国内+国际</text>
  <rect x="300" y="35" width="130" height="42" rx="8" fill="#1e293b" stroke="#38bdf8" stroke-width="1.5"/>
  <text x="365" y="55" text-anchor="middle" fill="#e2e8f0" font-size="14" font-weight="600">OpenClaw</text>
  <text x="365" y="70" text-anchor="middle" fill="#64748b" font-size="11">grok-4.6</text>
  <rect x="443" y="35" width="142" height="42" rx="8" fill="#1e293b" stroke="#38bdf8" stroke-width="1.5"/>
  <text x="514" y="55" text-anchor="middle" fill="#e2e8f0" font-size="14" font-weight="600">ZCode / Tabbit</text>
  <text x="514" y="70" text-anchor="middle" fill="#64748b" font-size="11">更多客户端</text>

  <text x="300" y="95" text-anchor="middle" fill="#475569" font-size="10" font-style="italic">文件级指针（junction / symlink → 同一物理文件）</text>

  <!-- Arrows down -->
  <line x1="80" y1="77" x2="90" y2="120" stroke="#334155" stroke-width="1.2" marker-end="url(#an)"/>
  <line x1="223" y1="77" x2="230" y2="120" stroke="#334155" stroke-width="1.2" marker-end="url(#an)"/>
  <line x1="365" y1="77" x2="370" y2="120" stroke="#334155" stroke-width="1.2" marker-end="url(#an)"/>
  <line x1="514" y1="77" x2="510" y2="120" stroke="#334155" stroke-width="1.2" marker-end="url(#an)"/>

  <!-- CORE -->
  <rect x="10" y="125" width="580" height="105" rx="12" fill="#0c1e3a" stroke="#334155" stroke-width="1"/>
  <text x="300" y="145" text-anchor="middle" fill="#38bdf8" font-size="12" font-weight="700" letter-spacing="2">MEMTETHER CORE</text>

  <rect x="22" y="152" width="130" height="70" rx="8" fill="#1e3a5f" stroke="#38bdf8" stroke-width="1.5"/>
  <text x="87" y="175" text-anchor="middle" fill="#e2e8f0" font-size="14" font-weight="700">gateway.py</text>
  <text x="87" y="192" text-anchor="middle" fill="#7dd3fc" font-size="11">写入管线</text>
  <text x="87" y="206" text-anchor="middle" fill="#64748b" font-size="10">source · PII · dedup</text>

  <rect x="162" y="152" width="130" height="70" rx="8" fill="#1e3a5f" stroke="#22c55e" stroke-width="1.5"/>
  <text x="227" y="175" text-anchor="middle" fill="#e2e8f0" font-size="14" font-weight="700">memsearch.py</text>
  <text x="227" y="192" text-anchor="middle" fill="#86efac" font-size="11">检索管线</text>
  <text x="227" y="206" text-anchor="middle" fill="#64748b" font-size="10">4路 · RRF · 精排</text>

  <rect x="302" y="152" width="130" height="70" rx="8" fill="#1e3a5f" stroke="#e94560" stroke-width="1.5"/>
  <text x="367" y="175" text-anchor="middle" fill="#e2e8f0" font-size="14" font-weight="700">governance.py</text>
  <text x="367" y="192" text-anchor="middle" fill="#fca5a5" font-size="11">治理管线</text>
  <text x="367" y="206" text-anchor="middle" fill="#64748b" font-size="10">冲突 · supersede</text>

  <rect x="442" y="152" width="130" height="70" rx="8" fill="#1e3a5f" stroke="#f59e0b" stroke-width="1.5"/>
  <text x="507" y="175" text-anchor="middle" fill="#e2e8f0" font-size="14" font-weight="700">rebuild</text>
  <text x="507" y="192" text-anchor="middle" fill="#fbbf24" font-size="11">投影管线</text>
  <text x="507" y="206" text-anchor="middle" fill="#64748b" font-size="10">3980字符 · pin</text>

  <!-- Core arrows -->
  <line x1="152" y1="187" x2="160" y2="187" stroke="#38bdf8" stroke-width="2" marker-end="url(#ab)"/>
  <line x1="292" y1="187" x2="300" y2="187" stroke="#22c55e" stroke-width="2" marker-end="url(#ag)"/>
  <line x1="432" y1="187" x2="440" y2="187" stroke="#e94560" stroke-width="2" marker-end="url(#ar)"/>

  <!-- STORAGE -->
  <rect x="70" y="248" width="460" height="70" rx="12" fill="#0c1e3a" stroke="#334155" stroke-width="1"/>
  <text x="300" y="266" text-anchor="middle" fill="#94a3b8" font-size="11" font-weight="600">存储</text>
  <rect x="85" y="272" width="205" height="40" rx="8" fill="#1a1a3e" stroke="#22c55e" stroke-width="1.5"/>
  <text x="187" y="290" text-anchor="middle" fill="#e2e8f0" font-size="13" font-weight="700">memory.db</text>
  <text x="187" y="304" text-anchor="middle" fill="#64748b" font-size="10">SQLite WAL · 1101 active</text>
  <rect x="305" y="272" width="205" height="40" rx="8" fill="#1a1a3e" stroke="#38bdf8" stroke-width="1.5"/>
  <text x="407" y="290" text-anchor="middle" fill="#e2e8f0" font-size="13" font-weight="700">ChromaDB</text>
  <text x="407" y="304" text-anchor="middle" fill="#64748b" font-size="10">bge-m3 · 1024维</text>

  <line x1="87" y1="222" x2="187" y2="270" stroke="#22c55e" stroke-width="1.2" marker-end="url(#ag)"/>
  <line x1="227" y1="222" x2="407" y2="270" stroke="#38bdf8" stroke-width="1.2" marker-end="url(#ab)"/>

  <!-- EXCHANGE -->
  <rect x="100" y="335" width="400" height="68" rx="12" fill="#0c1e3a" stroke="#e94560" stroke-width="1"/>
  <text x="300" y="352" text-anchor="middle" fill="#e94560" font-size="11" font-weight="700">记忆交换</text>
  <rect x="115" y="356" width="370" height="42" rx="8" fill="#2d1b4e" stroke="#e94560" stroke-width="1.5"/>
  <text x="300" y="374" text-anchor="middle" fill="#e2e8f0" font-size="12" font-weight="700">Exchange Schema v2</text>
  <text x="300" y="381" text-anchor="middle" fill="#c4b5fd" font-size="9">Mem0 · Zep · Letta · Graphiti · LangMem · COGX</text>
  <text x="300" y="392" text-anchor="middle" fill="#64748b" font-size="8">consent · sync watermark · BLAKE3 · supersession</text>
  <line x1="187" y1="312" x2="300" y2="333" stroke="#e94560" stroke-width="1.2" marker-end="url(#ar)"/>

  <!-- FEATURES -->
  <rect x="15" y="425" width="135" height="40" rx="8" fill="#1e293b" stroke="#e94560" stroke-width="1.2"/>
  <text x="82" y="442" text-anchor="middle" fill="#e94560" font-size="12" font-weight="700">🏆 治理模型</text>
  <text x="82" y="458" text-anchor="middle" fill="#94a3b8" font-size="10">supersession · Q-Value</text>
  <rect x="160" y="425" width="135" height="40" rx="8" fill="#1e293b" stroke="#38bdf8" stroke-width="1.2"/>
  <text x="227" y="442" text-anchor="middle" fill="#38bdf8" font-size="12" font-weight="700">🔄 跨客户端</text>
  <text x="227" y="458" text-anchor="middle" fill="#94a3b8" font-size="10">23适配器 · 一键接入</text>
  <rect x="305" y="425" width="135" height="40" rx="8" fill="#1e293b" stroke="#22c55e" stroke-width="1.2"/>
  <text x="372" y="442" text-anchor="middle" fill="#22c55e" font-size="12" font-weight="700">🔒 零费用</text>
  <text x="372" y="458" text-anchor="middle" fill="#94a3b8" font-size="10">100% 本地 · 零API</text>
  <rect x="450" y="425" width="135" height="40" rx="8" fill="#1e293b" stroke="#f59e0b" stroke-width="1.2"/>
  <text x="517" y="442" text-anchor="middle" fill="#f59e0b" font-size="12" font-weight="700">📊 可验证</text>
  <text x="517" y="458" text-anchor="middle" fill="#94a3b8" font-size="10">评测开源 · 可复现</text>
</svg>